<svg width="374" height="148" viewBox="0 0 374 148" fill="none" xmlns="http://www.w3.org/2000/svg">
<path d="M112.888 115.826C112.021 115.826 111.311 115.551 110.76 115C110.287 114.45 110.051 113.781 110.051 112.995V106.27C110.051 105.563 110.208 104.894 110.523 104.265C110.917 103.557 111.312 102.967 111.706 102.495L141.969 66.7501H113.833C113.045 66.7501 112.376 66.5142 111.824 66.0423C111.272 65.4917 110.996 64.7839 110.996 63.9188V57.3124C110.996 56.5259 111.272 55.8575 111.824 55.3069C112.376 54.7563 113.045 54.4811 113.833 54.4811H158.638C159.505 54.4811 160.175 54.7563 160.648 55.3069C161.2 55.8575 161.476 56.5259 161.476 57.3124V64.5087C161.476 65.2165 161.318 65.8456 161.002 66.3962C160.687 66.9468 160.293 67.5367 159.821 68.1658L130.266 103.557H161.121C161.909 103.557 162.579 103.832 163.13 104.383C163.682 104.855 163.958 105.523 163.958 106.388V112.995C163.958 113.781 163.682 114.45 163.13 115C162.579 115.551 161.909 115.826 161.121 115.826H112.888ZM193.779 117.006C189.681 117.006 185.976 116.219 182.666 114.646C179.356 112.995 176.716 110.832 174.745 108.158C172.854 105.405 171.908 102.338 171.908 98.9562C171.908 93.4508 174.115 89.0859 178.529 85.8614C183.021 82.5582 188.932 80.3561 196.261 79.2551L212.457 76.8956V74.4182C212.457 71.1151 211.63 68.559 209.975 66.7501C208.319 64.9413 205.482 64.0368 201.463 64.0368C198.626 64.0368 196.301 64.6267 194.488 65.8064C192.754 66.9074 191.454 68.4017 190.587 70.2893C189.956 71.3117 189.05 71.8229 187.868 71.8229H178.529C177.662 71.8229 176.992 71.5869 176.519 71.1151C176.125 70.6432 175.928 70.0141 175.928 69.2275C176.007 67.9691 176.519 66.4355 177.464 64.6267C178.41 62.8178 179.908 61.0875 181.957 59.4359C184.006 57.7056 186.646 56.2507 189.877 55.071C193.109 53.8913 197.01 53.3014 201.581 53.3014C206.546 53.3014 210.723 53.9305 214.112 55.189C217.58 56.3687 220.338 57.981 222.388 60.0258C224.437 62.0705 225.935 64.4694 226.88 67.222C227.826 69.9746 228.299 72.8846 228.299 75.9519V112.995C228.299 113.781 228.022 114.45 227.472 115C226.919 115.551 226.248 115.826 225.462 115.826H215.886C215.018 115.826 214.309 115.551 213.758 115C213.285 114.45 213.048 113.781 213.048 112.995V108.394C212.024 109.888 210.645 111.304 208.911 112.641C207.177 113.899 205.049 114.961 202.527 115.826C200.084 116.613 197.168 117.006 193.779 117.006ZM197.798 105.799C200.557 105.799 203.039 105.209 205.246 104.029C207.532 102.849 209.305 101.04 210.566 98.6023C211.905 96.0857 212.576 92.9397 212.576 89.1646V86.6872L200.754 88.5748C196.104 89.2826 192.636 90.4231 190.351 91.9959C188.065 93.5688 186.922 95.4958 186.922 97.7765C186.922 99.5068 187.434 101.001 188.459 102.259C189.562 103.439 190.941 104.344 192.596 104.973C194.252 105.523 195.985 105.799 197.798 105.799ZM246.303 115.826C245.514 115.826 244.843 115.551 244.293 115C243.741 114.45 243.465 113.781 243.465 112.995V57.4304C243.465 56.5654 243.741 55.8575 244.293 55.3069C244.843 54.7563 245.514 54.4811 246.303 54.4811H255.878C256.665 54.4811 257.336 54.7563 257.888 55.3069C258.518 55.8575 258.834 56.5654 258.834 57.4304V62.2672C260.646 59.7506 262.971 57.8236 265.809 56.4867C268.723 55.1497 272.074 54.4811 275.857 54.4811H280.704C281.57 54.4811 282.241 54.7563 282.714 55.3069C283.264 55.8575 283.541 56.5259 283.541 57.3124V65.8064C283.541 66.5929 283.264 67.2613 282.714 67.8119C282.241 68.3625 281.57 68.6377 280.704 68.6377H271.483C267.7 68.6377 264.745 69.6994 262.617 71.8229C260.566 73.9464 259.543 76.8564 259.543 80.5527V112.995C259.543 113.781 259.266 114.45 258.716 115C258.163 115.551 257.454 115.826 256.588 115.826H246.303ZM320.542 115.826C315.813 115.826 311.834 115 308.602 113.349C305.371 111.697 302.968 109.259 301.39 106.034C299.815 102.731 299.026 98.6416 299.026 93.7655V66.9861H289.687C288.9 66.9861 288.229 66.7109 287.677 66.1603C287.127 65.6097 286.849 64.9413 286.849 64.1548V57.3124C286.849 56.5259 287.127 55.8575 287.677 55.3069C288.229 54.7563 288.9 54.4811 289.687 54.4811H299.026V34.898C299.026 34.1114 299.262 33.4431 299.735 32.8924C300.288 32.3418 300.997 32.0667 301.863 32.0667H311.439C312.228 32.0667 312.898 32.3418 313.449 32.8924C314.001 33.4431 314.276 34.1114 314.276 34.898V54.4811H329.053C329.842 54.4811 330.513 54.7563 331.063 55.3069C331.615 55.8575 331.891 56.5259 331.891 57.3124V64.1548C331.891 64.9413 331.615 65.6097 331.063 66.1603C330.513 66.7109 329.842 66.9861 329.053 66.9861H314.276V92.5858C314.276 95.8103 314.828 98.3271 315.931 100.136C317.113 101.945 319.123 102.849 321.96 102.849H330.117C330.906 102.849 331.577 103.124 332.127 103.675C332.679 104.226 332.955 104.894 332.955 105.681V112.995C332.955 113.781 332.679 114.45 332.127 115C331.577 115.551 330.906 115.826 330.117 115.826H320.542Z" fill="#333333"/>
<path d="M356.317 116.622C354.023 116.622 352.05 115.812 350.399 114.192C348.746 112.545 347.921 110.562 347.921 108.243C347.921 105.953 348.746 103.998 350.399 102.378C352.05 100.73 354.023 99.9066 356.317 99.9066C358.612 99.9066 360.585 100.73 362.236 102.378C363.889 103.998 364.714 105.953 364.714 108.243C364.714 109.78 364.321 111.19 363.539 112.475C362.782 113.731 361.774 114.737 360.517 115.491C359.257 116.245 357.858 116.622 356.317 116.622Z" fill="#333333"/>
<path d="M53.7357 120.116C44.7882 120.116 36.7189 118.06 29.5275 113.949C22.3362 109.749 16.6918 103.984 12.5944 96.6558C8.49701 89.238 6.4483 80.9711 6.4483 71.8551C6.4483 62.7392 8.49701 54.517 12.5944 47.1884C16.6918 39.7706 22.3362 34.0061 29.5275 29.895C36.7189 25.6946 44.7882 23.5942 53.7357 23.5942C62.6831 23.5942 70.7524 25.6946 77.9438 29.895C85.1351 34.0061 90.7795 39.7258 94.8769 47.0544C98.9744 54.383 101.023 62.6497 101.023 71.8551C101.023 81.0605 98.9744 89.3273 94.8769 96.6558C90.7795 103.984 85.1351 109.749 77.9438 113.949C70.7524 118.06 62.6831 120.116 53.7357 120.116ZM53.7357 104.833C59.5892 104.833 64.8572 103.448 69.54 100.678C74.2227 97.8177 77.9021 93.8852 80.5779 88.8805C83.2535 83.7863 84.5915 78.1112 84.5915 71.8551C84.5915 65.599 83.2535 59.9686 80.5779 54.9638C77.9021 49.8696 74.2227 45.9373 69.54 43.1667C64.8572 40.3069 59.5892 38.8768 53.7357 38.8768C47.8821 38.8768 42.6141 40.3069 37.9314 43.1667C33.2486 45.9373 29.5692 49.8696 26.8934 54.9638C24.2178 59.9686 22.8798 65.599 22.8798 71.8551C22.8798 78.1112 24.2178 83.7863 26.8934 88.8805C29.5692 93.8852 33.2486 97.8177 37.9314 100.678C42.6141 103.448 47.8821 104.833 53.7357 104.833Z" fill="#333333"/>
<path d="M54.8104 8.57971V137.275" stroke="#333333" stroke-width="5"/>
</svg>
