<svg width="50" height="50" viewBox="0 0 50 50" fill="none" xmlns="http://www.w3.org/2000/svg">
<g clip-path="url(#clip0_21_7670)">
<path d="M25.8011 49.6695L37.1646 38.3062C37.6413 37.898 37.6968 37.1806 37.2885 36.704C36.8803 36.2273 36.163 36.1717 35.6863 36.58C35.6419 36.6181 35.6004 36.6595 35.5624 36.704L26.1307 46.1242L26.1307 1.13631C26.1307 0.50878 25.6219 -5.21909e-07 24.9943 -5.49344e-07C24.3667 -5.76778e-07 23.858 0.50878 23.858 1.13631L23.858 46.1242L14.4378 36.704C14.0296 36.2273 13.3122 36.1717 12.8355 36.58C12.3589 36.9883 12.3033 37.7056 12.7116 38.1822C12.7497 38.2267 12.7911 38.2682 12.8355 38.3062L24.199 49.6696C24.6421 50.1102 25.3579 50.1102 25.8011 49.6695Z" fill="#333333"/>
</g>
<defs>
<clipPath id="clip0_21_7670">
<rect width="50" height="50" fill="white" transform="translate(50) rotate(90)"/>
</clipPath>
</defs>
</svg>
