<svg width="60" height="60" viewBox="0 0 60 60" fill="none" xmlns="http://www.w3.org/2000/svg">
<g clip-path="url(#clip0_21_7623)">
<path d="M30.9075 37.3675C30.9075 32.7475 28.71 29.3325 24.17 28.0525C27.4825 26.475 29.21 24.085 29.21 20.3675C29.21 13.0375 23.73 11.25 17.4075 11.25H0V48.0525H17.895C24.605 48.0525 30.9075 44.845 30.9075 37.3675ZM8.115 17.5325H15.73C18.6575 17.5325 21.2925 18.3525 21.2925 21.7375C21.2925 24.8625 19.2425 26.12 16.3425 26.12H8.115V17.5325ZM8.1125 41.8025V31.6675H16.9575C20.53 31.6675 22.79 33.1525 22.79 36.9225C22.79 40.64 20.0925 41.8025 16.79 41.8025H8.1125Z" fill="#333333"/>
<path d="M46.99 48.75C53.375 48.75 57.51 45.8825 59.5 39.7875H53.02C52.3225 42.0625 49.4475 43.265 47.2175 43.265C42.915 43.265 40.655 40.7525 40.655 36.4825H59.9375C60.5475 27.9375 55.7875 20.655 46.9875 20.655C38.84 20.655 33.31 26.76 33.31 34.7575C33.31 43.0575 38.55 48.75 46.99 48.75ZM46.76 26.185C50.4475 26.185 52.3025 28.345 52.6125 31.8775H40.665C40.9075 28.375 43.24 26.185 46.76 26.185Z" fill="#333333"/>
<path d="M39.1675 13.1825H54.1375V16.8075H39.1675V13.1825Z" fill="#333333"/>
</g>
<defs>
<clipPath id="clip0_21_7623">
<rect width="60" height="60" fill="white"/>
</clipPath>
</defs>
</svg>
