<svg width="60" height="60" viewBox="0 0 60 60" fill="none" xmlns="http://www.w3.org/2000/svg">
<g clip-path="url(#clip0_21_7627)">
<path d="M30 0C13.4588 0 0 13.4588 0 30C0 46.5412 13.4588 60 30 60C46.5412 60 60 46.5412 60 30C60 13.4588 46.5412 0 30 0ZM30 56.25C15.525 56.25 3.75 44.4712 3.75 30C3.75 15.525 15.525 3.75 30 3.75C44.4712 3.75 56.25 15.525 56.25 30C56.25 44.4712 44.4712 56.25 30 56.25Z" fill="#333333"/>
<path d="M30 7.5C28.425 7.5 26.8875 7.665 25.4025 7.9725C28.1325 11.8425 30.6112 15.87 32.7937 20.0437C36.9225 18.12 40.8075 15.6375 44.355 12.675C40.4587 9.4425 35.4562 7.5 30 7.5Z" fill="#333333"/>
<path d="M47.0288 15.3225C43.17 18.5738 38.925 21.27 34.4175 23.3775C35.4038 25.4325 36.3188 27.5138 37.1663 29.6288C42.1463 28.605 47.3288 28.5113 52.4663 29.3625C52.3163 24 50.2988 19.11 47.0288 15.3225Z" fill="#333333"/>
<path d="M21.6375 9.12378C14.8838 11.8313 9.76125 17.7113 8.09625 24.93C15.3788 25.2413 22.5863 24.0263 29.295 21.465C27.0413 17.1863 24.4875 13.0613 21.6375 9.12378Z" fill="#333333"/>
<path d="M30.975 24.8588C24.48 27.39 17.5425 28.77 10.4887 28.77C9.5175 28.77 8.5425 28.71 7.5675 28.6575C7.54125 29.1038 7.5 29.5463 7.5 30C7.5 35.5238 9.49875 40.5788 12.8025 44.4938C18.2063 37.785 25.47 32.9775 33.51 30.5625C32.7262 28.635 31.8788 26.7375 30.975 24.8588Z" fill="#333333"/>
<path d="M38.5425 33.18C40.3313 38.1675 41.7338 43.2937 42.7613 48.5212C47.8313 45.0225 51.3713 39.4987 52.26 33.1162C47.6625 32.3025 43.0163 32.34 38.5425 33.18Z" fill="#333333"/>
<path d="M34.86 34.05C27.3 36.2588 20.4712 40.7963 15.465 47.16C19.3875 50.4863 24.4537 52.5 30 52.5C33.33 52.5 36.4837 51.7575 39.3262 50.4563C38.295 44.8538 36.795 39.3713 34.86 34.05Z" fill="#333333"/>
</g>
<defs>
<clipPath id="clip0_21_7627">
<rect width="60" height="60" fill="white"/>
</clipPath>
</defs>
</svg>
