<svg width="60" height="60" viewBox="0 0 60 60" fill="none" xmlns="http://www.w3.org/2000/svg">
<path d="M49.2188 4.21875H10.7812C9.04077 4.21875 7.37157 4.91015 6.14086 6.14086C4.91015 7.37157 4.21875 9.04077 4.21875 10.7812V49.2188C4.21875 50.9592 4.91015 52.6284 6.14086 53.8591C7.37157 55.0898 9.04077 55.7812 10.7812 55.7812H29.6098V34.327H25.3189V25.7454H29.5743V21.8672C29.5743 18.3572 31.2463 12.8735 38.6046 12.8735L45.2333 12.9001V20.2526H40.4195C39.6368 20.2526 38.523 20.6423 38.523 22.3141V25.746H45.3428L44.56 34.3276H38.1914V55.7812H49.2188C50.0806 55.7812 50.9339 55.6115 51.7301 55.2817C52.5263 54.9519 53.2498 54.4685 53.8591 53.8591C54.4685 53.2498 54.9519 52.5263 55.2817 51.7301C55.6115 50.9339 55.7812 50.0806 55.7812 49.2188V10.7812C55.7812 9.91945 55.6115 9.06609 55.2817 8.26989C54.9519 7.47369 54.4685 6.75025 53.8591 6.14086C53.2498 5.53148 52.5263 5.04809 51.7301 4.71829C50.9339 4.38849 50.0806 4.21875 49.2188 4.21875Z" fill="#333333"/>
</svg>
