<svg width="60" height="60" viewBox="0 0 60 60" fill="none" xmlns="http://www.w3.org/2000/svg">
<path d="M3.75 13.125C3.75 13.6223 3.94754 14.0992 4.29917 14.4508C4.6508 14.8025 5.12772 15 5.625 15H54.375C54.8723 15 55.3492 14.8025 55.7008 14.4508C56.0525 14.0992 56.25 13.6223 56.25 13.125C56.25 12.6277 56.0525 12.1508 55.7008 11.7992C55.3492 11.4475 54.8723 11.25 54.375 11.25H5.625C5.12772 11.25 4.6508 11.4475 4.29917 11.7992C3.94754 12.1508 3.75 12.6277 3.75 13.125ZM13.125 28.125H54.375C54.8723 28.125 55.3492 28.3225 55.7008 28.6742C56.0525 29.0258 56.25 29.5027 56.25 30C56.25 30.4973 56.0525 30.9742 55.7008 31.3258C55.3492 31.6775 54.8723 31.875 54.375 31.875H13.125C12.6277 31.875 12.1508 31.6775 11.7992 31.3258C11.4475 30.9742 11.25 30.4973 11.25 30C11.25 29.5027 11.4475 29.0258 11.7992 28.6742C12.1508 28.3225 12.6277 28.125 13.125 28.125ZM30 45H54.375C54.8723 45 55.3492 45.1975 55.7008 45.5492C56.0525 45.9008 56.25 46.3777 56.25 46.875C56.25 47.3723 56.0525 47.8492 55.7008 48.2008C55.3492 48.5525 54.8723 48.75 54.375 48.75H30C29.5027 48.75 29.0258 48.5525 28.6742 48.2008C28.3225 47.8492 28.125 47.3723 28.125 46.875C28.125 46.3777 28.3225 45.9008 28.6742 45.5492C29.0258 45.1975 29.5027 45 30 45Z" fill="#333333"/>
</svg>
