<svg width="60" height="60" viewBox="0 0 60 60" fill="none" xmlns="http://www.w3.org/2000/svg">
<g clip-path="url(#clip0_21_7658)">
<path d="M30 0C13.457 0 0 13.4583 0 30C0 46.5417 13.457 60 30 60C46.543 60 60 46.5417 60 30C60 13.4583 46.543 0 30 0ZM41.9263 31.0511L24.4263 42.3011C24.2213 42.4341 23.9844 42.5 23.75 42.5C23.545 42.5 23.3374 42.4487 23.1519 42.3475C22.749 42.1277 22.5 41.7077 22.5 41.25V18.75C22.5 18.2923 22.749 17.8723 23.1519 17.6525C23.5474 17.4353 24.043 17.4486 24.4263 17.6989L41.9263 28.9489C42.2828 29.1784 42.5 29.5752 42.5 30C42.5 30.4248 42.2828 30.8215 41.9263 31.0511Z" fill="#333333"/>
</g>
<defs>
<clipPath id="clip0_21_7658">
<rect width="60" height="60" fill="white"/>
</clipPath>
</defs>
</svg>
