<svg width="60" height="60" viewBox="0 0 60 60" fill="none" xmlns="http://www.w3.org/2000/svg">
<path d="M20.8447 30H11.6895V22.6758C11.6895 18.636 14.9739 15.3516 19.0137 15.3516H19.9291C21.4512 15.3516 22.6758 14.1271 22.6758 12.6049V7.11188C22.6758 5.58984 21.4513 4.36523 19.9291 4.36523H19.0137C8.89711 4.36523 0.703125 12.5592 0.703125 22.6758V50.1416C0.703125 53.1743 3.16359 55.6348 6.19629 55.6348H20.8447C23.8774 55.6348 26.3379 53.1743 26.3379 50.1416V35.4932C26.3379 32.4605 23.8774 30 20.8447 30Z" fill="#333333"/>
<path d="M53.8037 30H44.6484V22.6758C44.6484 18.636 47.9329 15.3516 51.9727 15.3516H52.8881C54.4102 15.3516 55.6348 14.1271 55.6348 12.6049V7.11188C55.6348 5.58984 54.4103 4.36523 52.8881 4.36523H51.9727C41.8561 4.36523 33.6621 12.5592 33.6621 22.6758V50.1416C33.6621 53.1743 36.1226 55.6348 39.1553 55.6348H53.8037C56.8364 55.6348 59.2969 53.1743 59.2969 50.1416V35.4932C59.2969 32.4605 56.8364 30 53.8037 30Z" fill="#333333"/>
</svg>
